<?xml version="1.0" encoding="UTF-8" standalone="no"?>
<!-- Created with Inkscape (http://www.inkscape.org/) -->

<svg
   xmlns:dc="http://purl.org/dc/elements/1.1/"
   xmlns:cc="http://creativecommons.org/ns#"
   xmlns:rdf="http://www.w3.org/1999/02/22-rdf-syntax-ns#"
   xmlns:svg="http://www.w3.org/2000/svg"
   xmlns="http://www.w3.org/2000/svg"
   xmlns:sodipodi="http://sodipodi.sourceforge.net/DTD/sodipodi-0.dtd"
   xmlns:inkscape="http://www.inkscape.org/namespaces/inkscape"
   width="117.16714mm"
   height="163.56636mm"
   viewBox="0 0 117.16714 163.56636"
   version="1.1"
   id="svg8"
   inkscape:version="0.92.2 (5c3e80d, 2017-08-06)"
   sodipodi:docname="phone.svg">
  <defs
     id="defs2">
    <marker
       inkscape:stockid="Arrow2Mstart"
       orient="auto"
       refY="0"
       refX="0"
       id="Arrow2Mstart"
       style="overflow:visible"
       inkscape:isstock="true">
      <path
         id="path1070"
         style="fill:#f20000;fill-opacity:1;fill-rule:evenodd;stroke:#f20000;stroke-width:0.625;stroke-linejoin:round;stroke-opacity:1"
         d="M 8.7185878,4.0337352 -2.2072895,0.01601326 8.7185884,-4.0017078 c -1.7454984,2.3720609 -1.7354408,5.6174519 -6e-7,8.035443 z"
         transform="scale(0.6)"
         inkscape:connector-curvature="0" />
    </marker>
    <marker
       inkscape:stockid="Arrow1Lstart"
       orient="auto"
       refY="0"
       refX="0"
       id="marker1336"
       style="overflow:visible"
       inkscape:isstock="true">
      <path
         id="path1334"
         d="M 0,0 5,-5 -12.5,0 5,5 Z"
         style="fill:#f20000;fill-opacity:1;fill-rule:evenodd;stroke:#f20000;stroke-width:1.00000003pt;stroke-opacity:1"
         transform="matrix(0.8,0,0,0.8,10,0)"
         inkscape:connector-curvature="0" />
    </marker>
    <marker
       inkscape:stockid="Arrow1Lstart"
       orient="auto"
       refY="0"
       refX="0"
       id="Arrow1Lstart"
       style="overflow:visible"
       inkscape:isstock="true">
      <path
         id="path1046"
         d="M 0,0 5,-5 -12.5,0 5,5 Z"
         style="fill:#f20000;fill-opacity:1;fill-rule:evenodd;stroke:#f20000;stroke-width:1.00000003pt;stroke-opacity:1"
         transform="matrix(0.8,0,0,0.8,10,0)"
         inkscape:connector-curvature="0" />
    </marker>
  </defs>
  <sodipodi:namedview
     id="base"
     pagecolor="#ffffff"
     bordercolor="#666666"
     borderopacity="1.0"
     inkscape:pageopacity="0.0"
     inkscape:pageshadow="2"
     inkscape:zoom="0.93637887"
     inkscape:cx="145.69376"
     inkscape:cy="303.46245"
     inkscape:document-units="mm"
     inkscape:current-layer="layer1"
     showgrid="false"
     inkscape:measure-start="189,862"
     inkscape:measure-end="305,573"
     inkscape:window-width="1313"
     inkscape:window-height="744"
     inkscape:window-x="53"
     inkscape:window-y="24"
     inkscape:window-maximized="1" />
  <metadata
     id="metadata5">
    <rdf:RDF>
      <cc:Work
         rdf:about="">
        <dc:format>image/svg+xml</dc:format>
        <dc:type
           rdf:resource="http://purl.org/dc/dcmitype/StillImage" />
        <dc:title />
      </cc:Work>
    </rdf:RDF>
  </metadata>
  <g
     inkscape:label="Layer 1"
     inkscape:groupmode="layer"
     id="layer1"
     transform="translate(-1.059031e-7,-133.43364)">
    <g
       id="g1093">
      <rect
         y="162.21883"
         x="31.364174"
         height="109.35077"
         width="55.664345"
         id="rect1046"
         style="opacity:1;fill:#ffffff;fill-opacity:1;stroke:#000000;stroke-width:0;stroke-linecap:square;stroke-linejoin:round;stroke-miterlimit:5;stroke-dasharray:none;stroke-opacity:1;paint-order:normal" />
      <path
         style="stroke-width:0.26458332"
         inkscape:connector-curvature="0"
         d="m 24.243401,163.38147 0.13553,102.85545 c 0.0049,4.42998 3.595275,8.01608 8.027119,8.00654 l 53.919498,-0.0701 c 4.42988,-0.005 8.01548,-3.60092 8.00987,-8.02834 l -0.137,-102.85886 c -0.005,-4.42988 -3.60093,-8.01549 -8.03081,-8.01086 l -53.920377,0.0723 c -4.428503,0.008 -8.008459,3.60402 -8.00383,8.0339 z m 34.98348,105.93202 c -2.792559,0.006 -5.057299,-2.24903 -5.060611,-5.04071 -0.0031,-2.78587 2.253949,-5.04963 5.045623,-5.05294 2.783911,-0.004 5.050865,2.25159 5.052505,5.04031 0.001,2.79055 -2.253852,5.04939 -5.037517,5.05334 z m -21.950676,-100.73836 43.897083,-0.0565 c 1.21916,-0.003 2.20958,0.9818 2.21389,2.2043 l 0.10483,79.18247 c 0.003,1.21916 -0.98745,2.21018 -2.20587,2.2107 l -43.894628,0.0575 c -1.220534,-6.1e-4 -2.210173,-0.98745 -2.210695,-2.20587 l -0.102618,-79.18161 c -0.0049,-1.22019 0.979685,-2.21071 2.198008,-2.21099 z"
         id="path129" />
      <g
         transform="matrix(0.24566187,0.09825774,-0.09825774,0.24566187,16.818632,117.14825)"
         id="g141" />
      <g
         transform="matrix(0.24566187,0.09825774,-0.09825774,0.24566187,16.818632,117.14825)"
         id="g143" />
      <g
         transform="matrix(0.24566187,0.09825774,-0.09825774,0.24566187,16.818632,117.14825)"
         id="g145" />
      <g
         transform="matrix(0.24566187,0.09825774,-0.09825774,0.24566187,16.818632,117.14825)"
         id="g147" />
      <g
         transform="matrix(0.24566187,0.09825774,-0.09825774,0.24566187,16.818632,117.14825)"
         id="g149" />
      <g
         transform="matrix(0.24566187,0.09825774,-0.09825774,0.24566187,16.818632,117.14825)"
         id="g151" />
      <g
         transform="matrix(0.24566187,0.09825774,-0.09825774,0.24566187,16.818632,117.14825)"
         id="g153" />
      <g
         transform="matrix(0.24566187,0.09825774,-0.09825774,0.24566187,16.818632,117.14825)"
         id="g155" />
      <g
         transform="matrix(0.24566187,0.09825774,-0.09825774,0.24566187,16.818632,117.14825)"
         id="g157" />
      <g
         transform="matrix(0.24566187,0.09825774,-0.09825774,0.24566187,16.818632,117.14825)"
         id="g159" />
      <g
         transform="matrix(0.24566187,0.09825774,-0.09825774,0.24566187,16.818632,117.14825)"
         id="g161" />
      <g
         transform="matrix(0.24566187,0.09825774,-0.09825774,0.24566187,16.818632,117.14825)"
         id="g163" />
      <g
         transform="matrix(0.24566187,0.09825774,-0.09825774,0.24566187,16.818632,117.14825)"
         id="g165" />
      <g
         transform="matrix(0.24566187,0.09825774,-0.09825774,0.24566187,16.818632,117.14825)"
         id="g167" />
      <g
         transform="matrix(0.24566187,0.09825774,-0.09825774,0.24566187,16.818632,117.14825)"
         id="g169" />
      <g
         transform="translate(-37.447582,122.5698)"
         id="g5169">
        <path
           style="opacity:1;fill:none;fill-opacity:1;stroke:#000000;stroke-width:5;stroke-linecap:round;stroke-linejoin:round;stroke-miterlimit:5;stroke-dasharray:none;stroke-opacity:1;paint-order:stroke fill markers"
           id="path235"
           sodipodi:type="arc"
           sodipodi:cx="71.163818"
           sodipodi:cy="44.578407"
           sodipodi:rx="22.414553"
           sodipodi:ry="22.414553"
           sodipodi:start="3.1415927"
           sodipodi:end="4.712389"
           d="M 48.749266,44.578406 A 22.414553,22.414553 0 0 1 71.163819,22.163855"
           sodipodi:open="true" />
        <path
           sodipodi:open="true"
           d="M 39.947832,44.557829 A 31.193739,31.193739 0 0 1 71.141572,13.364092"
           sodipodi:end="4.712389"
           sodipodi:start="3.1415927"
           sodipodi:ry="31.193739"
           sodipodi:rx="31.193739"
           sodipodi:cy="44.557831"
           sodipodi:cx="71.141571"
           sodipodi:type="arc"
           id="path1468"
           style="opacity:1;fill:none;fill-opacity:1;stroke:#000000;stroke-width:5;stroke-linecap:round;stroke-linejoin:round;stroke-miterlimit:5;stroke-dasharray:none;stroke-opacity:1;paint-order:stroke fill markers" />
      </g>
      <g
         transform="translate(-36.918415,123.09897)"
         id="g5181">
        <path
           sodipodi:open="true"
           d="m -142.78388,-140.18648 a 22.414553,22.414553 0 0 1 22.41456,-22.41455"
           sodipodi:end="4.712389"
           sodipodi:start="3.1415927"
           sodipodi:ry="22.414553"
           sodipodi:rx="22.414553"
           sodipodi:cy="-140.18648"
           sodipodi:cx="-120.36932"
           sodipodi:type="arc"
           id="path5171"
           style="opacity:1;fill:none;fill-opacity:1;stroke:#000000;stroke-width:5;stroke-linecap:round;stroke-linejoin:round;stroke-miterlimit:5;stroke-dasharray:none;stroke-opacity:1;paint-order:stroke fill markers"
           transform="scale(-1)" />
        <path
           style="opacity:1;fill:none;fill-opacity:1;stroke:#000000;stroke-width:5;stroke-linecap:round;stroke-linejoin:round;stroke-miterlimit:5;stroke-dasharray:none;stroke-opacity:1;paint-order:stroke fill markers"
           id="path5173"
           sodipodi:type="arc"
           sodipodi:cx="-120.39156"
           sodipodi:cy="-140.20705"
           sodipodi:rx="31.193739"
           sodipodi:ry="31.193739"
           sodipodi:start="3.1415927"
           sodipodi:end="4.712389"
           d="m -151.5853,-140.20705 a 31.193739,31.193739 0 0 1 31.19374,-31.19374"
           sodipodi:open="true"
           transform="scale(-1)" />
      </g>
    </g>
  </g>
</svg>
